<svg width="16" height="16" viewBox="0 0 16 16" fill="none" xmlns="http://www.w3.org/2000/svg">
  <path d="M3 2C2.44772 2 2 2.44772 2 3V13C2 13.5523 2.44772 14 3 14H13C13.5523 14 14 13.5523 14 13V3C14 2.44772 13.5523 2 13 2H3ZM1 3C1 1.89543 1.89543 1 3 1H13C14.1046 1 15 1.89543 15 3V13C15 14.1046 14.1046 15 13 15H3C1.89543 15 1 14.1046 1 13V3Z" fill="#666"/>
  <path d="M5 0C5.55228 0 6 0.447715 6 1V3C6 3.55228 5.55228 4 5 4C4.44772 4 4 3.55228 4 3V1C4 0.447715 4.44772 0 5 0Z" fill="#666"/>
  <path d="M11 0C11.5523 0 12 0.447715 12 1V3C12 3.55228 11.5523 4 11 4C10.4477 4 10 3.55228 10 3V1C10 0.447715 10.4477 0 11 0Z" fill="#666"/>
  <rect x="2" y="6" width="2" height="2" fill="#666"/>
  <rect x="5" y="6" width="2" height="2" fill="#666"/>
  <rect x="8" y="6" width="2" height="2" fill="#666"/>
  <rect x="11" y="6" width="2" height="2" fill="#666"/>
  <rect x="2" y="9" width="2" height="2" fill="#666"/>
  <rect x="5" y="9" width="2" height="2" fill="#666"/>
  <rect x="8" y="9" width="2" height="2" fill="#666"/>
  <rect x="11" y="9" width="2" height="2" fill="#666"/>
  <rect x="2" y="12" width="2" height="2" fill="#666"/>
  <rect x="5" y="12" width="2" height="2" fill="#666"/>
</svg>

