<svg width="20" height="20" viewBox="0 0 20 20" fill="none" xmlns="http://www.w3.org/2000/svg">
  <path d="M17.25 9.4464C17.2528 10.5306 16.9995 11.6001 16.5107 12.5678C15.9311 13.7275 15.0402 14.7029 13.9375 15.3847C12.8349 16.0666 11.5643 16.428 10.2679 16.4285C9.18368 16.4314 8.11417 16.1781 7.14643 15.6893L2.46429 17.25L4.025 12.5678C3.53619 11.6001 3.28289 10.5306 3.28572 9.4464C3.28622 8.14999 3.64765 6.87931 4.32952 5.77671C5.01139 4.6741 5.98678 3.78312 7.14643 3.20354C8.11417 2.71474 9.18368 2.46143 10.2679 2.46426H10.6786C12.3907 2.55871 14.0079 3.28138 15.2204 4.49389C16.4329 5.7064 17.1555 7.32354 17.25 9.03569V9.4464Z" stroke="#0B1A51" stroke-width="1.5" stroke-linecap="round" stroke-linejoin="round"/>
</svg>
