<svg width="12" height="12" viewBox="0 0 12 12" fill="none" xmlns="http://www.w3.org/2000/svg">
  <path d="M0 4.5C0 4.63261 0.0526781 4.75979 0.146446 4.85355C0.240214 4.94732 0.367392 5 0.5 5C0.632608 5 0.759786 4.94732 0.853554 4.85355C0.947322 4.75979 1 4.63261 1 4.5V1.7075L5.14563 5.85375C5.23945 5.94757 5.36669 6.00028 5.49938 6.00028C5.63206 6.00028 5.7593 5.94757 5.85312 5.85375C5.94695 5.75993 5.99965 5.63268 5.99965 5.5C5.99965 5.36732 5.94695 5.24007 5.85312 5.14625L1.7075 1H4.5C4.63261 1 4.75979 0.947321 4.85355 0.853553C4.94732 0.759785 5 0.632608 5 0.5C5 0.367392 4.94732 0.240215 4.85355 0.146447C4.75979 0.0526785 4.63261 0 4.5 0H0.5C0.367392 0 0.240214 0.0526785 0.146446 0.146447C0.0526781 0.240215 0 0.367392 0 0.5V4.5ZM2.5 6C2.63261 6 2.75979 6.05268 2.85355 6.14645C2.94732 6.24021 3 6.36739 3 6.5V11H11V3H6.5C6.36739 3 6.24021 2.94732 6.14645 2.85355C6.05268 2.75979 6 2.63261 6 2.5C6 2.36739 6.05268 2.24021 6.14645 2.14645C6.24021 2.05268 6.36739 2 6.5 2H11C11.2652 2 11.5196 2.10536 11.7071 2.29289C11.8946 2.48043 12 2.73478 12 3V11C12 11.2652 11.8946 11.5196 11.7071 11.7071C11.5196 11.8946 11.2652 12 11 12H3C2.73478 12 2.48043 11.8946 2.29289 11.7071C2.10536 11.5196 2 11.2652 2 11V6.5C2 6.36739 2.05268 6.24021 2.14645 6.14645C2.24021 6.05268 2.36739 6 2.5 6Z" fill="#40C7A0"/>
</svg>
