<svg width="17" height="18" viewBox="0 0 17 18" fill="none" xmlns="http://www.w3.org/2000/svg">
<path d="M4.16667 8.125V4.95833C4.16667 3.90852 4.5837 2.9017 5.32604 2.15937C6.06837 1.41704 7.07518 1 8.125 1C9.17482 1 10.1816 1.41704 10.924 2.15937C11.6663 2.9017 12.0833 3.90852 12.0833 4.95833V8.125M2.58333 8.125H13.6667C14.5411 8.125 15.25 8.83388 15.25 9.70833V15.25C15.25 16.1245 14.5411 16.8333 13.6667 16.8333H2.58333C1.70888 16.8333 1 16.1245 1 15.25V9.70833C1 8.83388 1.70888 8.125 2.58333 8.125Z" stroke="#6A7282" stroke-width="2" stroke-linecap="round" stroke-linejoin="round"/>
</svg>

