<svg width="186" height="29" viewBox="0 0 186 29" fill="none" xmlns="http://www.w3.org/2000/svg">
<path d="M2.98106 21.24L1.10906 7.104H5.23706L6.48506 17.688C7.65306 17.608 8.60506 17.4 9.34106 17.064C10.0931 16.712 10.6691 16.264 11.0691 15.72C11.4691 15.176 11.7411 14.56 11.8851 13.872C12.0451 13.168 12.1251 12.432 12.1251 11.664L12.0771 7.104H16.4451L16.4691 11.424C16.4851 13.6 16.0291 15.44 15.1011 16.944C14.1891 18.448 12.7411 19.568 10.7571 20.304C8.77306 21.04 6.18106 21.352 2.98106 21.24ZM5.66906 15.624L4.63706 12.96C5.30906 12.88 5.79706 12.688 6.10106 12.384C6.40506 12.08 6.59706 11.632 6.67706 11.04C6.75706 10.448 6.78906 9.688 6.77306 8.76L6.74906 7.104H10.8771V8.664C10.8771 9.768 10.7331 10.784 10.4451 11.712C10.1731 12.64 9.66106 13.44 8.90906 14.112C8.15706 14.768 7.07706 15.272 5.66906 15.624ZM26.6169 21V13.128C26.6169 12.472 26.6809 11.904 26.8089 11.424C26.9369 10.944 27.1049 10.576 27.3129 10.32H21.4809V7.104H33.2649V10.32H31.3689C31.2089 10.72 31.1049 11.184 31.0569 11.712C31.0089 12.224 30.9849 12.696 30.9849 13.128V21H26.6169ZM38.8965 21V9.912L38.6325 7.104H42.9765L43.2645 9.912V21H38.8965ZM54.5702 21.024L54.2342 17.808C54.7462 17.776 55.1782 17.68 55.5302 17.52C55.8822 17.36 56.1702 17.128 56.3942 16.824C56.6182 16.52 56.7862 16.136 56.8982 15.672C57.0102 15.192 57.0902 14.632 57.1382 13.992L57.3782 10.32H49.1942V7.104H62.0822L61.9382 9.84L61.7462 12.792C61.6982 13.816 61.5542 14.816 61.3142 15.792C61.0902 16.768 60.7222 17.656 60.2102 18.456C59.6982 19.24 58.9862 19.864 58.0742 20.328C57.1622 20.792 55.9942 21.024 54.5702 21.024ZM48.8822 25.8V14.376L49.4822 12.72H53.2502V14.352V25.8H48.8822ZM75.3549 21V11.4C75.3549 11.032 75.2669 10.76 75.0909 10.584C74.9149 10.408 74.6429 10.32 74.2749 10.32H67.6509V7.104H75.5229C76.3229 7.104 77.0349 7.256 77.6589 7.56C78.2989 7.864 78.8029 8.352 79.1709 9.024C79.5389 9.68 79.7229 10.552 79.7229 11.64V21H75.3549ZM67.4589 21V14.4L68.0589 12.792H71.8269V14.4V21H67.4589ZM95.889 21L100.017 10.32H93.345V7.104H104.385V10.656L100.257 21H95.889ZM93.345 10.32V3.792H97.233V10.32H93.345ZM115.197 21.024L114.861 17.808C115.373 17.776 115.805 17.68 116.157 17.52C116.509 17.36 116.797 17.128 117.021 16.824C117.245 16.52 117.413 16.136 117.525 15.672C117.637 15.192 117.717 14.632 117.765 13.992L118.005 10.32H109.821V7.104H122.709L122.565 9.84L122.373 12.792C122.325 13.816 122.181 14.816 121.941 15.792C121.717 16.768 121.349 17.656 120.837 18.456C120.325 19.24 119.613 19.864 118.701 20.328C117.789 20.792 116.621 21.024 115.197 21.024ZM109.509 25.8V14.376L110.109 12.72H113.877V14.352V25.8H109.509ZM129.79 21.24L127.918 7.104H132.046L133.294 17.688C134.462 17.608 135.414 17.4 136.15 17.064C136.902 16.712 137.478 16.264 137.878 15.72C138.278 15.176 138.55 14.56 138.694 13.872C138.854 13.168 138.934 12.432 138.934 11.664L138.886 7.104H143.254L143.278 11.424C143.294 13.6 142.838 15.44 141.91 16.944C140.998 18.448 139.55 19.568 137.566 20.304C135.582 21.04 132.99 21.352 129.79 21.24ZM132.478 15.624L131.446 12.96C132.118 12.88 132.606 12.688 132.91 12.384C133.214 12.08 133.406 11.632 133.486 11.04C133.566 10.448 133.598 9.688 133.582 8.76L133.558 7.104H137.686V8.664C137.686 9.768 137.542 10.784 137.254 11.712C136.982 12.64 136.47 13.44 135.718 14.112C134.966 14.768 133.886 15.272 132.478 15.624Z" fill="#2F3264"/>
<circle cx="171.25" cy="14.5" r="12" stroke="#2F3264" stroke-width="5"/>
</svg>

