<svg width="30" height="30" viewBox="0 0 30 30" fill="none" xmlns="http://www.w3.org/2000/svg">
<rect width="30" height="30" rx="15" fill="#DCE1EB"/>
<path d="M20.25 14.7083C20.252 15.4783 20.0721 16.2378 19.725 16.925C19.3134 17.7485 18.6807 18.4412 17.8977 18.9254C17.1147 19.4097 16.2123 19.6663 15.2917 19.6667C14.5217 19.6687 13.7622 19.4888 13.075 19.1417L9.75 20.25L10.8583 16.925C10.5112 16.2378 10.3313 15.4783 10.3333 14.7083C10.3337 13.7877 10.5904 12.8853 11.0746 12.1023C11.5588 11.3193 12.2515 10.6866 13.075 10.275C13.7622 9.92789 14.5217 9.74801 15.2917 9.75002H15.5833C16.7992 9.8171 17.9476 10.3303 18.8087 11.1914C19.6697 12.0524 20.1829 13.2008 20.25 14.4167V14.7083Z" stroke="#2F3264" stroke-linecap="round" stroke-linejoin="round"/>
</svg>

