<svg width="24" height="24" viewBox="0 0 24 24" fill="none" xmlns="http://www.w3.org/2000/svg">
  <path d="M10.8462 10.5001C10.8462 10.2776 10.9138 10.06 11.0406 9.87504C11.1674 9.69003 11.3476 9.54584 11.5584 9.46069C11.7693 9.37554 12.0013 9.35326 12.2251 9.39667C12.4489 9.44008 12.6545 9.54722 12.8159 9.70456C12.9773 9.86189 13.0872 10.0624 13.1317 10.2806C13.1762 10.4988 13.1533 10.725 13.066 10.9306C12.9787 11.1362 12.8308 11.3119 12.641 11.4355C12.4513 11.5591 12.2282 11.6251 12 11.6251C11.694 11.6251 11.4005 11.5065 11.1841 11.2956C10.9677 11.0846 10.8462 10.7984 10.8462 10.5001ZM7.76923 11.6251C7.99744 11.6251 8.22052 11.5591 8.41027 11.4355C8.60002 11.3119 8.74791 11.1362 8.83525 10.9306C8.92258 10.725 8.94543 10.4988 8.90091 10.2806C8.85638 10.0624 8.74649 9.86189 8.58512 9.70456C8.42376 9.54722 8.21816 9.44008 7.99434 9.39667C7.77051 9.35326 7.53851 9.37554 7.32767 9.46069C7.11684 9.54584 6.93663 9.69003 6.80984 9.87504C6.68306 10.06 6.61538 10.2776 6.61538 10.5001C6.61538 10.7984 6.73695 11.0846 6.95334 11.2956C7.16973 11.5065 7.46321 11.6251 7.76923 11.6251ZM16.2308 11.6251C16.459 11.6251 16.6821 11.5591 16.8718 11.4355C17.0616 11.3119 17.2095 11.1362 17.2968 10.9306C17.3841 10.725 17.407 10.4988 17.3624 10.2806C17.3179 10.0624 17.208 9.86189 17.0467 9.70456C16.8853 9.54722 16.6797 9.44008 16.4559 9.39667C16.232 9.35326 16.0001 9.37554 15.7892 9.46069C15.5784 9.54584 15.3982 9.69003 15.2714 9.87504C15.1446 10.06 15.0769 10.2776 15.0769 10.5001C15.0769 10.7984 15.1985 11.0846 15.4149 11.2956C15.6313 11.5065 15.9248 11.6251 16.2308 11.6251ZM22 4.50001V16.5001C22 16.8979 21.8379 17.2795 21.5494 17.5608C21.2609 17.8421 20.8696 18.0001 20.4615 18.0001H14.651L13.3356 20.2445C13.201 20.474 13.0066 20.6648 12.772 20.7975C12.5375 20.9301 12.2712 21 12 21C11.7288 21 11.4625 20.9301 11.228 20.7975C10.9934 20.6648 10.799 20.474 10.6644 20.2445L9.34904 18.0001H3.53846C3.13044 18.0001 2.73912 17.8421 2.4506 17.5608C2.16209 17.2795 2 16.8979 2 16.5001V4.50001C2 4.10218 2.16209 3.72065 2.4506 3.43934C2.73912 3.15804 3.13044 3 3.53846 3H20.4615C20.8696 3 21.2609 3.15804 21.5494 3.43934C21.8379 3.72065 22 4.10218 22 4.50001ZM20.4615 4.50001H3.53846V16.5001H9.79519C9.93139 16.4989 10.0655 16.533 10.1837 16.5989C10.302 16.6648 10.4002 16.7601 10.4683 16.8751L12.0067 19.5001L13.5452 16.8751C13.6133 16.7601 13.7115 16.6648 13.8297 16.5989C13.948 16.533 14.0821 16.4989 14.2183 16.5001H20.4615V4.50001Z" fill="#4A5565"/>
</svg>
