<svg width="21" height="21" viewBox="0 0 21 21" fill="none" xmlns="http://www.w3.org/2000/svg">
  <path d="M20.125 14C20.125 14.2321 20.0328 14.4546 19.8687 14.6187C19.7046 14.7828 19.4821 14.875 19.25 14.875H16.625V16.625H18.375C18.6071 16.625 18.8296 16.7172 18.9937 16.8813C19.1578 17.0454 19.25 17.2679 19.25 17.5C19.25 17.7321 19.1578 17.9546 18.9937 18.1187C18.8296 18.2828 18.6071 18.375 18.375 18.375H16.625V20.125C16.625 20.3571 16.5328 20.5796 16.3687 20.7437C16.2046 20.9078 15.9821 21 15.75 21C15.5179 21 15.2954 20.9078 15.1313 20.7437C14.9672 20.5796 14.875 20.3571 14.875 20.125V14C14.875 13.7679 14.9672 13.5454 15.1313 13.3813C15.2954 13.2172 15.5179 13.125 15.75 13.125H19.25C19.4821 13.125 19.7046 13.2172 19.8687 13.3813C20.0328 13.5454 20.125 13.7679 20.125 14ZM5.6875 16.1875C5.6875 16.9997 5.36484 17.7787 4.79051 18.353C4.21618 18.9273 3.43723 19.25 2.625 19.25H1.75V20.125C1.75 20.3571 1.65781 20.5796 1.49372 20.7437C1.32962 20.9078 1.10706 21 0.875 21C0.642936 21 0.420376 20.9078 0.256282 20.7437C0.0921874 20.5796 0 20.3571 0 20.125V14C0 13.7679 0.0921874 13.5454 0.256282 13.3813C0.420376 13.2172 0.642936 13.125 0.875 13.125H2.625C3.43723 13.125 4.21618 13.4477 4.79051 14.022C5.36484 14.5963 5.6875 15.3753 5.6875 16.1875ZM3.9375 16.1875C3.9375 15.8394 3.79922 15.5056 3.55308 15.2594C3.30694 15.0133 2.9731 14.875 2.625 14.875H1.75V17.5H2.625C2.9731 17.5 3.30694 17.3617 3.55308 17.1156C3.79922 16.8694 3.9375 16.5356 3.9375 16.1875ZM13.5625 17.0625C13.5625 18.1068 13.1477 19.1083 12.4092 19.8467C11.6708 20.5852 10.6693 21 9.625 21H7.875C7.64294 21 7.42038 20.9078 7.25628 20.7437C7.09219 20.5796 7 20.3571 7 20.125V14C7 13.7679 7.09219 13.5454 7.25628 13.3813C7.42038 13.2172 7.64294 13.125 7.875 13.125H9.625C10.6693 13.125 11.6708 13.5398 12.4092 14.2783C13.1477 15.0167 13.5625 16.0182 13.5625 17.0625ZM11.8125 17.0625C11.8125 16.4823 11.582 15.9259 11.1718 15.5157C10.7616 15.1055 10.2052 14.875 9.625 14.875H8.75V19.25H9.625C10.2052 19.25 10.7616 19.0195 11.1718 18.6093C11.582 18.1991 11.8125 17.6427 11.8125 17.0625ZM0 9.625V1.75C0 1.28587 0.184374 0.840752 0.512563 0.512563C0.840752 0.184375 1.28587 2.70549e-07 1.75 2.70549e-07H12.25C12.3649 -9.01126e-05 12.4788 0.0224663 12.585 0.0663809C12.6912 0.110295 12.7877 0.174708 12.8691 0.255938L18.9941 6.38094C19.0753 6.46226 19.1397 6.55879 19.1836 6.66501C19.2275 6.77123 19.2501 6.88506 19.25 7V9.625C19.25 9.85706 19.1578 10.0796 18.9937 10.2437C18.8296 10.4078 18.6071 10.5 18.375 10.5C18.1429 10.5 17.9204 10.4078 17.7563 10.2437C17.5922 10.0796 17.5 9.85706 17.5 9.625V7.875H12.25C12.0179 7.875 11.7954 7.78281 11.6313 7.61872C11.4672 7.45462 11.375 7.23206 11.375 7V1.75H1.75V9.625C1.75 9.85706 1.65781 10.0796 1.49372 10.2437C1.32962 10.4078 1.10706 10.5 0.875 10.5C0.642936 10.5 0.420376 10.4078 0.256282 10.2437C0.0921874 10.0796 0 9.85706 0 9.625ZM13.125 6.125H16.263L13.125 2.98703V6.125Z" fill="white"/>
</svg>
