<svg width="24" height="24" viewBox="0 0 24 24" fill="none" xmlns="http://www.w3.org/2000/svg">
  <path d="M21.3103 7.2539L17.1216 3.06422C16.9823 2.92489 16.8169 2.81437 16.6349 2.73897C16.4529 2.66357 16.2578 2.62476 16.0608 2.62476C15.8638 2.62476 15.6687 2.66357 15.4867 2.73897C15.3047 2.81437 15.1393 2.92489 15 3.06422L3.43969 14.6255C3.2998 14.7642 3.18889 14.9295 3.11341 15.1115C3.03792 15.2935 2.99938 15.4887 3.00001 15.6858V19.8755C3.00001 20.2733 3.15804 20.6548 3.43935 20.9361C3.72065 21.2174 4.10218 21.3755 4.50001 21.3755H8.6897C8.88675 21.3761 9.08197 21.3375 9.26399 21.2621C9.44602 21.1866 9.61122 21.0757 9.75001 20.9358L21.3103 9.37547C21.4496 9.23617 21.5602 9.0708 21.6356 8.88879C21.711 8.70678 21.7498 8.5117 21.7498 8.31468C21.7498 8.11767 21.711 7.92259 21.6356 7.74058C21.5602 7.55857 21.4496 7.3932 21.3103 7.2539ZM8.6897 19.8755H4.50001V15.6858L12.75 7.43578L16.9397 11.6255L8.6897 19.8755ZM18 10.5642L13.8103 6.37547L16.0603 4.12547L20.25 8.31422L18 10.5642Z" fill="#4A5565"/>
</svg>
