<svg width="23" height="23" viewBox="0 0 23 23" fill="none" xmlns="http://www.w3.org/2000/svg">
  <path d="M5.75 8.62508V1.91675H17.25V8.62508M5.75 17.2501H3.83333C3.325 17.2501 2.83749 17.0481 2.47805 16.6887C2.1186 16.3293 1.91667 15.8417 1.91667 15.3334V10.5417C1.91667 10.0334 2.1186 9.5459 2.47805 9.18646C2.83749 8.82702 3.325 8.62508 3.83333 8.62508H19.1667C19.675 8.62508 20.1625 8.82702 20.522 9.18646C20.8814 9.5459 21.0833 10.0334 21.0833 10.5417V15.3334C21.0833 15.8417 20.8814 16.3293 20.522 16.6887C20.1625 17.0481 19.675 17.2501 19.1667 17.2501H17.25M5.75 13.4167H17.25V21.0834H5.75V13.4167Z" stroke="#4A5565" stroke-width="1.5" stroke-linecap="round" stroke-linejoin="round"/>
</svg>
