<svg width="14" height="17" viewBox="0 0 14 17" fill="none" xmlns="http://www.w3.org/2000/svg">
<path d="M8.25 0.75H2.25C1.85218 0.75 1.47064 0.908035 1.18934 1.18934C0.908035 1.47064 0.75 1.85218 0.75 2.25V14.25C0.75 14.6478 0.908035 15.0294 1.18934 15.3107C1.47064 15.592 1.85218 15.75 2.25 15.75H11.25C11.6478 15.75 12.0294 15.592 12.3107 15.3107C12.592 15.0294 12.75 14.6478 12.75 14.25V5.25M8.25 0.75L12.75 5.25M8.25 0.75V5.25H12.75M9.75 9H3.75M9.75 12H3.75M5.25 6H3.75" stroke="#DFE5EF" stroke-width="1.5" stroke-linecap="round" stroke-linejoin="round"/>
</svg>

