<svg width="19" height="21" viewBox="0 0 19 21" fill="none" xmlns="http://www.w3.org/2000/svg">
  <path d="M13.2913 12.6436C12.9301 12.6435 12.5725 12.7151 12.2397 12.8541C11.907 12.9932 11.6058 13.1969 11.354 13.4531L8.23346 11.4692C8.47892 10.8466 8.47892 10.1555 8.23346 9.53291L11.354 7.54904C11.8228 8.02396 12.4531 8.30981 13.1228 8.35117C13.7925 8.39254 14.4538 8.18646 14.9787 7.7729C15.5035 7.35934 15.8544 6.76776 15.9633 6.11285C16.0722 5.45795 15.9313 4.78637 15.5681 4.22833C15.2048 3.6703 14.645 3.26555 13.9972 3.09257C13.3494 2.91958 12.6597 2.99069 12.0619 3.2921C11.4641 3.5935 11.0007 4.10374 10.7616 4.72388C10.5225 5.34402 10.5247 6.02988 10.7678 6.6485L7.64725 8.63237C7.27147 8.25077 6.78919 7.98869 6.26204 7.87962C5.7349 7.77055 5.18685 7.81945 4.68794 8.02007C4.18904 8.22068 3.76195 8.5639 3.46128 9.00584C3.1606 9.44778 3 9.96838 3 10.5011C3 11.0338 3.1606 11.5544 3.46128 11.9963C3.76195 12.4382 4.18904 12.7815 4.68794 12.9821C5.18685 13.1827 5.7349 13.2316 6.26204 13.1225C6.78919 13.0135 7.27147 12.7514 7.64725 12.3698L10.7678 14.3536C10.5588 14.887 10.5278 15.4725 10.6795 16.0244C10.8313 16.5764 11.1576 17.0658 11.6109 17.421C12.0642 17.7762 12.6205 17.9786 13.1985 17.9984C13.7764 18.0182 14.3456 17.8545 14.8226 17.5312C15.2997 17.208 15.6596 16.7421 15.8496 16.2019C16.0397 15.6616 16.0498 15.0754 15.8787 14.529C15.7075 13.9827 15.364 13.5049 14.8984 13.1656C14.4328 12.8263 13.8696 12.6434 13.2913 12.6436ZM13.2913 4.07342C13.6127 4.07342 13.9268 4.16766 14.1939 4.34423C14.4611 4.5208 14.6693 4.77177 14.7923 5.06539C14.9152 5.35902 14.9474 5.68212 14.8847 5.99383C14.822 6.30554 14.6673 6.59186 14.4401 6.81659C14.2129 7.04132 13.9234 7.19437 13.6083 7.25637C13.2931 7.31837 12.9665 7.28655 12.6696 7.16493C12.3728 7.0433 12.1191 6.83734 11.9405 6.57309C11.762 6.30883 11.6668 5.99815 11.6668 5.68033C11.6668 5.25415 11.8379 4.84543 12.1426 4.54407C12.4473 4.24272 12.8605 4.07342 13.2913 4.07342ZM5.70993 12.108C5.38861 12.108 5.07452 12.0137 4.80735 11.8372C4.54019 11.6606 4.33196 11.4096 4.209 11.116C4.08604 10.8224 4.05387 10.4993 4.11655 10.1876C4.17924 9.87587 4.33397 9.58954 4.56117 9.36481C4.78837 9.14008 5.07785 8.98704 5.39299 8.92504C5.70812 8.86303 6.03478 8.89485 6.33163 9.01648C6.62849 9.1381 6.88221 9.34406 7.06072 9.60832C7.23924 9.87257 7.33452 10.1833 7.33452 10.5011C7.33452 10.9273 7.16335 11.336 6.85869 11.6373C6.55402 11.9387 6.14079 12.108 5.70993 12.108ZM13.2913 16.9287C12.97 16.9287 12.6559 16.8345 12.3888 16.6579C12.1216 16.4813 11.9134 16.2304 11.7904 15.9368C11.6675 15.6431 11.6353 15.32 11.698 15.0083C11.7607 14.6966 11.9154 14.4103 12.1426 14.1856C12.3698 13.9608 12.6593 13.8078 12.9744 13.7458C13.2895 13.6838 13.6162 13.7156 13.913 13.8372C14.2099 13.9588 14.4636 14.1648 14.6421 14.4291C14.8207 14.6933 14.9159 15.004 14.9159 15.3218C14.9159 15.748 14.7448 16.1567 14.4401 16.4581C14.1354 16.7594 13.7222 16.9287 13.2913 16.9287Z" fill="#4A5565"/>
</svg>
