<svg width="24" height="24" viewBox="0 0 24 24" fill="none" xmlns="http://www.w3.org/2000/svg">
  <path d="M19.7917 5.76923H16.25V5.07692C16.25 4.52609 16.0261 3.99782 15.6276 3.60832C15.2291 3.21882 14.6886 3 14.125 3H9.875C9.31141 3 8.77091 3.21882 8.3724 3.60832C7.97388 3.99782 7.75 4.52609 7.75 5.07692V5.76923H4.20833C4.02047 5.76923 3.8403 5.84217 3.70747 5.972C3.57463 6.10184 3.5 6.27793 3.5 6.46154C3.5 6.64515 3.57463 6.82124 3.70747 6.95107C3.8403 7.08091 4.02047 7.15385 4.20833 7.15385H4.91667V19.6154C4.91667 19.9826 5.06592 20.3348 5.3316 20.5945C5.59728 20.8541 5.95761 21 6.33333 21H17.6667C18.0424 21 18.4027 20.8541 18.6684 20.5945C18.9341 20.3348 19.0833 19.9826 19.0833 19.6154V7.15385H19.7917C19.9795 7.15385 20.1597 7.08091 20.2925 6.95107C20.4254 6.82124 20.5 6.64515 20.5 6.46154C20.5 6.27793 20.4254 6.10184 20.2925 5.972C20.1597 5.84217 19.9795 5.76923 19.7917 5.76923ZM9.16667 5.07692C9.16667 4.89331 9.24129 4.71722 9.37413 4.58739C9.50697 4.45755 9.68714 4.38462 9.875 4.38462H14.125C14.3129 4.38462 14.493 4.45755 14.6259 4.58739C14.7587 4.71722 14.8333 4.89331 14.8333 5.07692V5.76923H9.16667V5.07692ZM17.6667 19.6154H6.33333V7.15385H17.6667V19.6154ZM10.5833 10.6154V16.1538C10.5833 16.3375 10.5087 16.5135 10.3759 16.6434C10.243 16.7732 10.0629 16.8462 9.875 16.8462C9.68714 16.8462 9.50697 16.7732 9.37413 16.6434C9.24129 16.5135 9.16667 16.3375 9.16667 16.1538V10.6154C9.16667 10.4318 9.24129 10.2557 9.37413 10.1258C9.50697 9.99602 9.68714 9.92308 9.875 9.92308C10.0629 9.92308 10.243 9.99602 10.3759 10.1258C10.5087 10.2557 10.5833 10.4318 10.5833 10.6154ZM14.8333 10.6154V16.1538C14.8333 16.3375 14.7587 16.5135 14.6259 16.6434C14.493 16.7732 14.3129 16.8462 14.125 16.8462C13.9371 16.8462 13.757 16.7732 13.6241 16.6434C13.4913 16.5135 13.4167 16.3375 13.4167 16.1538V10.6154C13.4167 10.4318 13.4913 10.2557 13.6241 10.1258C13.757 9.99602 13.9371 9.92308 14.125 9.92308C14.3129 9.92308 14.493 9.99602 14.6259 10.1258C14.7587 10.2557 14.8333 10.4318 14.8333 10.6154Z" fill="#4A5565"/>
</svg>
