<svg width="20" height="20" viewBox="0 0 20 20" fill="none" xmlns="http://www.w3.org/2000/svg">
  <path d="M2.46423 4.92859H4.10709H17.2499" stroke="#0B1A51" stroke-width="1.5" stroke-linecap="round" stroke-linejoin="round"/>
  <path d="M15.6072 4.92854V16.4285C15.6072 16.8642 15.4341 17.2821 15.126 17.5902C14.8179 17.8983 14.4 18.0714 13.9643 18.0714H5.75003C5.31432 18.0714 4.89645 17.8983 4.58836 17.5902C4.28026 17.2821 4.10718 16.8642 4.10718 16.4285V4.92854M6.57146 4.92854V3.28568C6.57146 2.84997 6.74455 2.4321 7.05265 2.124C7.36074 1.81591 7.77861 1.64282 8.21432 1.64282H11.5C11.9357 1.64282 12.3536 1.81591 12.6617 2.124C12.9698 2.4321 13.1429 2.84997 13.1429 3.28568V4.92854" stroke="#0B1A51" stroke-width="1.5" stroke-linecap="round" stroke-linejoin="round"/>
  <path d="M8.21423 9.03577V13.9643" stroke="#0B1A51" stroke-width="1.5" stroke-linecap="round" stroke-linejoin="round"/>
  <path d="M11.5 9.03577V13.9643" stroke="#0B1A51" stroke-width="1.5" stroke-linecap="round" stroke-linejoin="round"/>
</svg>
