<svg width="19" height="17" viewBox="0 0 19 17" fill="none" xmlns="http://www.w3.org/2000/svg">
<path d="M9.27135 5.83134V8.99801M9.27135 12.1647H9.27926M7.9176 1.76217L1.21218 12.9563C1.07393 13.1958 1.00078 13.4672 1.00001 13.7437C0.999232 14.0201 1.07086 14.292 1.20777 14.5322C1.34468 14.7724 1.54209 14.9725 1.78037 15.1127C2.01864 15.2529 2.28948 15.3283 2.56593 15.3313H15.9768C16.2532 15.3283 16.5241 15.2529 16.7623 15.1127C17.0006 14.9725 17.198 14.7724 17.3349 14.5322C17.4718 14.292 17.5435 14.0201 17.5427 13.7437C17.5419 13.4672 17.4688 13.1958 17.3305 12.9563L10.6251 1.76217C10.484 1.52951 10.2853 1.33714 10.0481 1.20364C9.811 1.07014 9.54347 1 9.27135 1C8.99922 1 8.73169 1.07014 8.49457 1.20364C8.25744 1.33714 8.05873 1.52951 7.9176 1.76217Z" stroke="#5A5A5A" stroke-width="2" stroke-linecap="round" stroke-linejoin="round"/>
</svg>
