<svg width="31" height="31" viewBox="0 0 31 31" fill="none" xmlns="http://www.w3.org/2000/svg">
  <rect width="31" height="31" rx="15.5" fill="#99A1AF"/>
  <path d="M15.5 4.9375C13.4109 4.9375 11.3688 5.55698 9.63179 6.7176C7.8948 7.87822 6.54098 9.52786 5.74153 11.4579C4.94208 13.3879 4.7329 15.5117 5.14046 17.5606C5.54802 19.6096 6.554 21.4916 8.03119 22.9688C9.50838 24.446 11.3904 25.452 13.4394 25.8595C15.4883 26.2671 17.6121 26.0579 19.5421 25.2585C21.4721 24.459 23.1218 23.1052 24.2824 21.3682C25.443 19.6312 26.0625 17.5891 26.0625 15.5C26.0595 12.6996 24.9458 10.0147 22.9656 8.03445C20.9853 6.05424 18.3004 4.94046 15.5 4.9375ZM10.0238 22.5586C10.6115 21.6393 11.4213 20.8828 12.3783 20.3588C13.3353 19.8348 14.4089 19.5601 15.5 19.5601C16.5911 19.5601 17.6647 19.8348 18.6217 20.3588C19.5787 20.8828 20.3885 21.6393 20.9763 22.5586C19.4105 23.7763 17.4835 24.4374 15.5 24.4374C13.5165 24.4374 11.5895 23.7763 10.0238 22.5586ZM12.25 14.6875C12.25 14.0447 12.4406 13.4164 12.7977 12.8819C13.1548 12.3474 13.6624 11.9309 14.2563 11.6849C14.8501 11.4389 15.5036 11.3745 16.134 11.4999C16.7645 11.6253 17.3436 11.9349 17.7981 12.3894C18.2526 12.8439 18.5622 13.423 18.6876 14.0535C18.813 14.6839 18.7486 15.3374 18.5026 15.9312C18.2566 16.5251 17.8401 17.0327 17.3056 17.3898C16.7711 17.7469 16.1428 17.9375 15.5 17.9375C14.6381 17.9375 13.8114 17.5951 13.2019 16.9856C12.5924 16.3761 12.25 15.5495 12.25 14.6875ZM22.1788 21.4323C21.2726 20.1191 19.9984 19.1032 18.5164 18.5123C19.3125 17.8853 19.8934 17.0259 20.1783 16.0534C20.4632 15.081 20.4381 14.0439 20.1063 13.0864C19.7745 12.1289 19.1526 11.2986 18.327 10.711C17.5015 10.1234 16.5133 9.8076 15.5 9.8076C14.4867 9.8076 13.4985 10.1234 12.673 10.711C11.8474 11.2986 11.2255 12.1289 10.8937 13.0864C10.5619 14.0439 10.5368 15.081 10.8217 16.0534C11.1066 17.0259 11.6875 17.8853 12.4836 18.5123C11.0016 19.1032 9.72743 20.1191 8.82125 21.4323C7.67621 20.1446 6.9278 18.5534 6.66614 16.8503C6.40449 15.1471 6.64075 13.4047 7.34648 11.8327C8.05221 10.2607 9.19731 8.92624 10.6439 7.99C12.0905 7.05375 13.7769 6.55564 15.5 6.55564C17.2231 6.55564 18.9095 7.05375 20.3561 7.99C21.8027 8.92624 22.9478 10.2607 23.6535 11.8327C24.3593 13.4047 24.5955 15.1471 24.3339 16.8503C24.0722 18.5534 23.3238 20.1446 22.1788 21.4323Z" fill="white"/>
</svg>
