<svg width="20" height="20" viewBox="0 0 20 20" fill="none" xmlns="http://www.w3.org/2000/svg">
<path d="M9.75 0C7.16414 0 4.68419 1.02723 2.85571 2.85571C1.02723 4.68419 0 7.16414 0 9.75C0 12.3359 1.02723 14.8158 2.85571 16.6443C4.68419 18.4728 7.16414 19.5 9.75 19.5C11.7666 19.5 13.8844 18.8925 15.4153 17.8753C15.4974 17.8208 15.5679 17.7506 15.6228 17.6688C15.6778 17.587 15.716 17.4952 15.7355 17.3986C15.755 17.302 15.7552 17.2026 15.7362 17.1059C15.7172 17.0092 15.6794 16.9172 15.6248 16.8352C15.5703 16.7531 15.5001 16.6826 15.4183 16.6277C15.3366 16.5727 15.2447 16.5344 15.1482 16.515C15.0516 16.4955 14.9521 16.4953 14.8554 16.5143C14.7587 16.5332 14.6667 16.5711 14.5847 16.6256C13.3125 17.4731 11.4572 18 9.75 18C8.1183 18 6.52325 17.5161 5.16655 16.6096C3.80984 15.7031 2.75242 14.4146 2.12799 12.9071C1.50357 11.3996 1.34019 9.74085 1.65852 8.1405C1.97685 6.54016 2.76259 5.07015 3.91637 3.91637C5.07015 2.76259 6.54016 1.97685 8.1405 1.65852C9.74085 1.34019 11.3996 1.50357 12.9071 2.12799C14.4146 2.75242 15.7031 3.80984 16.6096 5.16655C17.5161 6.52325 18 8.1183 18 9.75C18 12.2297 16.98 12.75 16.125 12.75C15.27 12.75 14.25 12.2297 14.25 9.75V6C14.25 5.80109 14.171 5.61032 14.0303 5.46967C13.8897 5.32902 13.6989 5.25 13.5 5.25C13.3011 5.25 13.1103 5.32902 12.9697 5.46967C12.829 5.61032 12.75 5.80109 12.75 6V6.39937C12.077 5.79593 11.2378 5.40918 10.3418 5.28951C9.44576 5.16983 8.53449 5.32277 7.72666 5.72842C6.91883 6.13406 6.25189 6.7736 5.81273 7.56371C5.37357 8.35382 5.18255 9.25788 5.26455 10.1581C5.34656 11.0583 5.69778 11.913 6.27247 12.6108C6.84716 13.3085 7.61867 13.817 8.4865 14.07C9.35433 14.323 10.2782 14.3088 11.1379 14.0292C11.9975 13.7496 12.753 13.2176 13.3059 12.5025C13.8684 13.6275 14.8387 14.25 16.125 14.25C18.2381 14.25 19.5 12.5681 19.5 9.75C19.4973 7.16498 18.4692 4.68661 16.6413 2.85872C14.8134 1.03084 12.335 0.00272983 9.75 0ZM9.75 12.75C9.15666 12.75 8.57664 12.5741 8.08329 12.2444C7.58994 11.9148 7.20542 11.4462 6.97836 10.8981C6.7513 10.3499 6.69189 9.74667 6.80764 9.16473C6.9234 8.58279 7.20912 8.04824 7.62868 7.62868C8.04824 7.20912 8.58279 6.9234 9.16473 6.80764C9.74667 6.69189 10.3499 6.7513 10.8981 6.97836C11.4462 7.20542 11.9148 7.58994 12.2444 8.08329C12.5741 8.57664 12.75 9.15666 12.75 9.75C12.75 10.5456 12.4339 11.3087 11.8713 11.8713C11.3087 12.4339 10.5456 12.75 9.75 12.75Z" fill="white"/>
</svg>
