<svg width="20" height="18" viewBox="0 0 20 18" fill="none" xmlns="http://www.w3.org/2000/svg">
<path d="M8.84615 7.50006C8.84615 7.27755 8.91383 7.06005 9.04061 6.87504C9.1674 6.69003 9.3476 6.54584 9.55844 6.46069C9.76928 6.37554 10.0013 6.35326 10.2251 6.39667C10.4489 6.44008 10.6545 6.54722 10.8159 6.70456C10.9773 6.86189 11.0872 7.06235 11.1317 7.28058C11.1762 7.49881 11.1533 7.72501 11.066 7.93058C10.9787 8.13615 10.8308 8.31185 10.641 8.43547C10.4513 8.55909 10.2282 8.62507 10 8.62507C9.69398 8.62507 9.4005 8.50654 9.18411 8.29556C8.96772 8.08458 8.84615 7.79843 8.84615 7.50006ZM5.76923 8.62507C5.99744 8.62507 6.22052 8.55909 6.41027 8.43547C6.60002 8.31185 6.74791 8.13615 6.83525 7.93058C6.92258 7.72501 6.94543 7.49881 6.90091 7.28058C6.85638 7.06235 6.74649 6.86189 6.58512 6.70456C6.42376 6.54722 6.21816 6.44008 5.99434 6.39667C5.77051 6.35326 5.53851 6.37554 5.32767 6.46069C5.11684 6.54584 4.93663 6.69003 4.80984 6.87504C4.68306 7.06005 4.61538 7.27755 4.61538 7.50006C4.61538 7.79843 4.73695 8.08458 4.95334 8.29556C5.16973 8.50654 5.46321 8.62507 5.76923 8.62507ZM14.2308 8.62507C14.459 8.62507 14.6821 8.55909 14.8718 8.43547C15.0616 8.31185 15.2095 8.13615 15.2968 7.93058C15.3841 7.72501 15.407 7.49881 15.3624 7.28058C15.3179 7.06235 15.208 6.86189 15.0467 6.70456C14.8853 6.54722 14.6797 6.44008 14.4559 6.39667C14.232 6.35326 14.0001 6.37554 13.7892 6.46069C13.5784 6.54584 13.3982 6.69003 13.2714 6.87504C13.1446 7.06005 13.0769 7.27755 13.0769 7.50006C13.0769 7.79843 13.1985 8.08458 13.4149 8.29556C13.6313 8.50654 13.9248 8.62507 14.2308 8.62507ZM20 1.50001V13.5001C20 13.8979 19.8379 14.2795 19.5494 14.5608C19.2609 14.8421 18.8696 15.0001 18.4615 15.0001H12.651L11.3356 17.2445C11.201 17.474 11.0066 17.6648 10.772 17.7975C10.5375 17.9301 10.2712 18 10 18C9.72884 18 9.46251 17.9301 9.22796 17.7975C8.99342 17.6648 8.79901 17.474 8.66442 17.2445L7.34904 15.0001H1.53846C1.13044 15.0001 0.739122 14.8421 0.450605 14.5608C0.162087 14.2795 0 13.8979 0 13.5001V1.50001C0 1.10218 0.162087 0.72065 0.450605 0.439343C0.739122 0.158036 1.13044 0 1.53846 0H18.4615C18.8696 0 19.2609 0.158036 19.5494 0.439343C19.8379 0.72065 20 1.10218 20 1.50001ZM18.4615 1.50001H1.53846V13.5001H7.79519C7.93139 13.4989 8.06547 13.533 8.18372 13.5989C8.30198 13.6648 8.40017 13.7601 8.46827 13.8751L10.0067 16.5001L11.5452 13.8751C11.6133 13.7601 11.7115 13.6648 11.8297 13.5989C11.948 13.533 12.0821 13.4989 12.2183 13.5001H18.4615V1.50001Z" fill="white"/>
</svg>

