<svg width="17" height="17" viewBox="0 0 17 17" fill="none" xmlns="http://www.w3.org/2000/svg">
<path d="M15.5357 7.73217C15.5386 8.81634 15.2853 9.88586 14.7965 10.8536C14.2169 12.0132 13.3259 12.9886 12.2233 13.6705C11.1207 14.3524 9.85001 14.7138 8.55359 14.7143C7.46942 14.7171 6.3999 14.4638 5.43217 13.975L0.750023 15.5357L2.31074 10.8536C1.82193 9.88586 1.56862 8.81634 1.57145 7.73217C1.57195 6.43575 1.93338 5.16508 2.61526 4.06248C3.29713 2.95987 4.27252 2.06888 5.43217 1.48931C6.3999 1.0005 7.46942 0.747197 8.55359 0.750023H8.96431C10.6765 0.844481 12.2936 1.56715 13.5061 2.77966C14.7186 3.99217 15.4413 5.60931 15.5357 7.32145V7.73217Z" stroke="#2F3264" stroke-width="1.5" stroke-linecap="round" stroke-linejoin="round"/>
</svg>

