<svg width="17" height="17" viewBox="0 0 17 17" fill="none" xmlns="http://www.w3.org/2000/svg">
<path d="M3.75 6V0.75H12.75V6M3.75 12.75H2.25C1.85218 12.75 1.47064 12.592 1.18934 12.3107C0.908035 12.0294 0.75 11.6478 0.75 11.25V7.5C0.75 7.10218 0.908035 6.72064 1.18934 6.43934C1.47064 6.15804 1.85218 6 2.25 6H14.25C14.6478 6 15.0294 6.15804 15.3107 6.43934C15.592 6.72064 15.75 7.10218 15.75 7.5V11.25C15.75 11.6478 15.592 12.0294 15.3107 12.3107C15.0294 12.592 14.6478 12.75 14.25 12.75H12.75M3.75 9.75H12.75V15.75H3.75V9.75Z" stroke="#2F3264" stroke-width="1.5" stroke-linecap="round" stroke-linejoin="round"/>
</svg>

