<svg width="20" height="20" viewBox="0 0 20 20" fill="none" xmlns="http://www.w3.org/2000/svg">
<path d="M13.4715 7.46731L10.9657 10L13.4715 12.5327C13.5422 12.6042 13.5982 12.689 13.6365 12.7824C13.6747 12.8758 13.6944 12.9758 13.6944 13.0769C13.6944 13.178 13.6747 13.2781 13.6365 13.3715C13.5982 13.4648 13.5422 13.5497 13.4715 13.6212C13.4008 13.6926 13.3169 13.7493 13.2245 13.788C13.1322 13.8267 13.0332 13.8466 12.9332 13.8466C12.8333 13.8466 12.7343 13.8267 12.6419 13.788C12.5496 13.7493 12.4657 13.6926 12.395 13.6212L9.89011 11.0875L7.38525 13.6212C7.31457 13.6926 7.23065 13.7493 7.1383 13.788C7.04595 13.8267 6.94696 13.8466 6.847 13.8466C6.74704 13.8466 6.64806 13.8267 6.5557 13.788C6.46335 13.7493 6.37944 13.6926 6.30875 13.6212C6.23807 13.5497 6.182 13.4648 6.14374 13.3715C6.10549 13.2781 6.0858 13.178 6.0858 13.0769C6.0858 12.9758 6.10549 12.8758 6.14374 12.7824C6.182 12.689 6.23807 12.6042 6.30875 12.5327L8.81456 10L6.30875 7.46731C6.166 7.32297 6.0858 7.1272 6.0858 6.92308C6.0858 6.71895 6.166 6.52318 6.30875 6.37884C6.4515 6.23451 6.64512 6.15342 6.847 6.15342C7.04888 6.15342 7.2425 6.23451 7.38525 6.37884L9.89011 8.9125L12.395 6.37884C12.4657 6.30737 12.5496 6.25068 12.6419 6.212C12.7343 6.17332 12.8333 6.15342 12.9332 6.15342C13.0332 6.15342 13.1322 6.17332 13.2245 6.212C13.3169 6.25068 13.4008 6.30737 13.4715 6.37884C13.5422 6.45031 13.5982 6.53516 13.6365 6.62854C13.6747 6.72192 13.6944 6.822 13.6944 6.92308C13.6944 7.02415 13.6747 7.12423 13.6365 7.21761C13.5982 7.31099 13.5422 7.39584 13.4715 7.46731ZM19.7802 10C19.7802 11.9778 19.2002 13.9112 18.1134 15.5557C17.0267 17.2002 15.4821 18.4819 13.6749 19.2388C11.8677 19.9957 9.87914 20.1937 7.96065 19.8078C6.04216 19.422 4.27991 18.4696 2.89675 17.0711C1.51359 15.6725 0.571652 13.8907 0.19004 11.9509C-0.191572 10.0111 0.00428523 8.00042 0.752844 6.17316C1.5014 4.3459 2.76904 2.78412 4.39546 1.6853C6.02188 0.58649 7.93403 0 9.89011 0C12.5123 0.00279983 15.0263 1.05727 16.8804 2.93202C18.7346 4.80678 19.7775 7.34869 19.7802 10ZM18.2587 10C18.2587 8.32646 17.7679 6.69051 16.8483 5.29902C15.9288 3.90753 14.6218 2.82299 13.0926 2.18256C11.5635 1.54212 9.88083 1.37456 8.25749 1.70105C6.63415 2.02754 5.14301 2.83342 3.97265 4.01679C2.80229 5.20016 2.00526 6.70786 1.68236 8.34923C1.35946 9.99061 1.52518 11.6919 2.15858 13.2381C2.79197 14.7842 3.86459 16.1057 5.24079 17.0355C6.61699 17.9653 8.23497 18.4615 9.89011 18.4615C12.1088 18.459 14.2359 17.5667 15.8048 15.9804C17.3737 14.3941 18.2561 12.2434 18.2587 10Z" fill="#F08080"/>
</svg>
