<svg width="21" height="21" viewBox="0 0 21 21" fill="none" xmlns="http://www.w3.org/2000/svg">
<path d="M1.75 17.0625C1.75 18.2656 2.53531 19.25 3.5 19.25C3.71114 19.2453 3.91912 19.1976 4.11128 19.11C4.30345 19.0224 4.47578 18.8966 4.61781 18.7403C4.77902 18.5761 4.99842 18.482 5.2285 18.4784C5.45857 18.4748 5.68081 18.562 5.84707 18.7211C6.01334 18.8802 6.11025 19.0983 6.11682 19.3283C6.12339 19.5583 6.0391 19.7817 5.88219 19.95C5.57751 20.278 5.20907 20.5403 4.79945 20.7208C4.38982 20.9014 3.94764 20.9964 3.5 21C1.56953 21 0 19.2336 0 17.0625C0 14.8914 1.56953 13.125 3.5 13.125C3.94764 13.1286 4.38982 13.2236 4.79945 13.4042C5.20907 13.5847 5.57751 13.847 5.88219 14.175C6.0391 14.3433 6.12339 14.5666 6.11682 14.7967C6.11025 15.0267 6.01334 15.2448 5.84707 15.4039C5.68081 15.563 5.45857 15.6502 5.2285 15.6466C4.99842 15.643 4.77902 15.5489 4.61781 15.3847C4.47578 15.2284 4.30345 15.1026 4.11128 15.015C3.91912 14.9274 3.71114 14.8797 3.5 14.875C2.53531 14.875 1.75 15.8594 1.75 17.0625ZM10.4563 16.112C10.0188 15.9852 9.56594 15.855 9.31328 15.692C9.17656 15.6034 9.17875 15.5827 9.19078 15.4842C9.19269 15.4047 9.21353 15.3269 9.25158 15.257C9.28962 15.1872 9.34377 15.1275 9.40953 15.0828C9.91266 14.7416 11.0873 14.8936 11.5773 15.0216C11.8019 15.0818 12.0411 15.0503 12.2424 14.9341C12.4437 14.8179 12.5907 14.6265 12.6509 14.402C12.7111 14.1774 12.6796 13.9382 12.5634 13.7369C12.4472 13.5355 12.2558 13.3886 12.0312 13.3284C11.7994 13.2683 9.73438 12.7575 8.43937 13.6303C8.16552 13.8141 7.93541 14.0558 7.7653 14.3384C7.5952 14.621 7.48927 14.9374 7.455 15.2655C7.23625 17.0023 8.94797 17.4978 9.97062 17.7931C11.2897 18.1748 11.4056 18.3313 11.3684 18.6233C11.3345 18.8869 11.2306 18.9886 11.1344 19.0531C10.6313 19.3878 9.47516 19.2237 8.99609 19.0925C8.77215 19.03 8.53255 19.059 8.32999 19.1731C8.12744 19.2873 7.97853 19.4772 7.91602 19.7012C7.8535 19.9251 7.88251 20.1647 7.99666 20.3673C8.11081 20.5698 8.30075 20.7187 8.52469 20.7812C9.06717 20.9233 9.62533 20.9968 10.1861 21C10.8227 21 11.5314 20.8906 12.0991 20.5122C12.3792 20.326 12.6147 20.0801 12.7885 19.792C12.9623 19.504 13.0701 19.1811 13.1042 18.8464C13.3438 16.9531 11.538 16.4248 10.4563 16.112ZM19.5442 13.1764C19.436 13.1377 19.3212 13.1206 19.2064 13.1263C19.0916 13.1319 18.979 13.1601 18.8751 13.2093C18.7712 13.2584 18.678 13.3276 18.6008 13.4128C18.5236 13.498 18.464 13.5975 18.4253 13.7058L17.0625 17.523L15.6986 13.7058C15.6206 13.4872 15.4589 13.3086 15.2492 13.2092C15.0394 13.1098 14.7988 13.0978 14.5802 13.1759C14.3617 13.2539 14.183 13.4156 14.0837 13.6253C13.9843 13.835 13.9723 14.0756 14.0503 14.2942L16.2378 20.4192C16.2985 20.5893 16.4102 20.7364 16.5578 20.8404C16.7053 20.9444 16.8814 21.0002 17.062 21.0002C17.2425 21.0002 17.4186 20.9444 17.5661 20.8404C17.7137 20.7364 17.8254 20.5893 17.8861 20.4192L20.0736 14.2942C20.1515 14.0758 20.1395 13.8354 20.0403 13.6258C19.941 13.4162 19.7626 13.2545 19.5442 13.1764ZM20.125 7V9.625C20.125 9.85706 20.0328 10.0796 19.8687 10.2437C19.7046 10.4078 19.4821 10.5 19.25 10.5C19.0179 10.5 18.7954 10.4078 18.6313 10.2437C18.4672 10.0796 18.375 9.85706 18.375 9.625V7.875H13.125C12.8929 7.875 12.6704 7.78281 12.5063 7.61872C12.3422 7.45462 12.25 7.23206 12.25 7V1.75H2.625V9.625C2.625 9.85706 2.53281 10.0796 2.36872 10.2437C2.20462 10.4078 1.98206 10.5 1.75 10.5C1.51794 10.5 1.29538 10.4078 1.13128 10.2437C0.967187 10.0796 0.875 9.85706 0.875 9.625V1.75C0.875 1.28587 1.05937 0.840752 1.38756 0.512563C1.71575 0.184375 2.16087 2.70549e-07 2.625 2.70549e-07H13.125C13.2399 -9.01126e-05 13.3538 0.0224663 13.46 0.0663809C13.5662 0.110295 13.6627 0.174708 13.7441 0.255938L19.8691 6.38094C19.9503 6.46226 20.0147 6.55879 20.0586 6.66501C20.1025 6.77123 20.1251 6.88506 20.125 7ZM17.138 6.125L14 2.98703V6.125H17.138Z" fill="white"/>
</svg>

