<svg width="24" height="24" viewBox="0 0 24 24" fill="none" xmlns="http://www.w3.org/2000/svg">
<path d="M5 18.9994V6H11.3799C12.1642 6 12.8278 6.16191 13.3708 6.48574C13.9137 6.80957 14.321 7.31074 14.5925 7.98924C14.8639 8.65232 14.9997 9.50815 14.9997 10.5567V14.0263H13.1445V10.4411C13.1445 9.59296 13.0088 8.96073 12.7373 8.54437C12.4809 8.1126 12.0134 7.89672 11.3346 7.89672H7.42074V18.9994H5ZM9.27588 18.9994V10.5799H11.131V16.9177C12.5035 16.8868 13.6121 16.7095 14.4567 16.3857C15.3164 16.0618 15.9725 15.5915 16.425 14.9747C16.8775 14.3579 17.1866 13.61 17.3526 12.731C17.5185 11.8366 17.5939 10.8112 17.5788 9.65465L17.5562 6H19.9769L19.9995 9.65465C20.0146 11.906 19.6677 13.7256 18.9588 15.1135C18.265 16.4859 17.1339 17.4805 15.5653 18.0973C13.9967 18.7142 11.9002 19.0149 9.27588 18.9994Z" fill="white"/>
</svg>

