<svg width="20" height="20" viewBox="0 0 20 20" fill="none" xmlns="http://www.w3.org/2000/svg">
<path d="M17.5 9.58333C17.5024 10.6833 17.2459 11.7688 16.75 12.75C16.162 13.9265 15.2581 14.926 14.1395 15.6392C13.0209 16.3524 11.7319 16.7525 10.4167 16.7917C9.31667 16.7941 8.23119 16.5376 7.25 16.0417L2.5 17.5L3.95834 12.75C3.46243 11.7688 3.20595 10.6833 3.20834 9.58333C3.24757 8.26812 3.64765 6.97908 4.36085 5.86049C5.07405 4.7419 6.07355 3.83803 7.25 3.25C8.23119 2.75409 9.31667 2.49762 10.4167 2.5H10.8333C12.4674 2.54082 14.0332 3.21376 15.2083 4.38889C16.3835 5.56402 17.0564 7.12981 17.0972 8.76389L17.5 9.58333Z" stroke="white" stroke-width="1.5" stroke-linecap="round" stroke-linejoin="round"/>
</svg>


