<svg width="17" height="17" viewBox="0 0 17 17" fill="none" xmlns="http://www.w3.org/2000/svg">
<path d="M4.25 4.25H12.75V2.125C12.75 1.64075 12.3592 1.25 11.875 1.25H5.125C4.64075 1.25 4.25 1.64075 4.25 2.125V4.25ZM4.25 12.75V15.75C4.25 16.2342 4.64075 16.625 5.125 16.625H11.875C12.3592 16.625 12.75 16.2342 12.75 15.75V12.75M2.125 6.375V12.75C2.125 13.2342 2.51575 13.625 3 13.625H4.25V12.75H2.125V6.375C2.125 5.89075 2.51575 5.5 3 5.5H14C14.4842 5.5 14.875 5.89075 14.875 6.375V12.75H12.75V13.625H14C14.4842 13.625 14.875 13.2342 14.875 12.75V6.375C14.875 5.89075 14.4842 5.5 14 5.5H3C2.51575 5.5 2.125 5.89075 2.125 6.375Z" stroke="#2F3264" stroke-width="1.5" stroke-linecap="round" stroke-linejoin="round"/>
<path d="M11.875 9.5625C12.3592 9.5625 12.75 9.17175 12.75 8.6875C12.75 8.20325 12.3592 7.8125 11.875 7.8125C11.3908 7.8125 11 8.20325 11 8.6875C11 9.17175 11.3908 9.5625 11.875 9.5625Z" stroke="#2F3264" stroke-width="1.5" stroke-linecap="round" stroke-linejoin="round"/>
</svg>

