<svg width="20" height="21" viewBox="0 0 20 21" fill="none" xmlns="http://www.w3.org/2000/svg">
<path d="M12.7091 20.125C12.7091 20.3571 12.6169 20.5796 12.4528 20.7437C12.2888 20.9078 12.0662 21 11.8341 21H8.77163C8.53957 21 8.31701 20.9078 8.15291 20.7437C7.98882 20.5796 7.89663 20.3571 7.89663 20.125V14C7.89663 13.7679 7.98882 13.5454 8.15291 13.3813C8.31701 13.2172 8.53957 13.125 8.77163 13.125C9.00369 13.125 9.22625 13.2172 9.39035 13.3813C9.55444 13.5454 9.64663 13.7679 9.64663 14V19.25H11.8341C12.0662 19.25 12.2888 19.3422 12.4528 19.5063C12.6169 19.6704 12.7091 19.8929 12.7091 20.125ZM5.78022 13.288C5.68672 13.2212 5.58097 13.1735 5.46903 13.1475C5.35708 13.1216 5.24112 13.118 5.12778 13.1369C5.01443 13.1558 4.90591 13.1968 4.80843 13.2576C4.71094 13.3185 4.62639 13.3979 4.5596 13.4914L3.08413 15.5575L1.60866 13.4914C1.54425 13.3923 1.46043 13.3073 1.36226 13.2415C1.26408 13.1756 1.15359 13.1304 1.03745 13.1084C0.921315 13.0865 0.801933 13.0883 0.686513 13.1138C0.571093 13.1392 0.462028 13.1878 0.365899 13.2566C0.26977 13.3254 0.18857 13.4129 0.127199 13.5139C0.0658277 13.6149 0.0255578 13.7273 0.00881909 13.8443C-0.00791957 13.9613 -0.000780323 14.0805 0.0298067 14.1947C0.0603938 14.3088 0.113794 14.4156 0.186785 14.5086L2.00897 17.0625L0.184598 19.6164C0.0618198 19.8053 0.0166416 20.0343 0.0584718 20.2557C0.100302 20.4771 0.225917 20.6738 0.409158 20.8049C0.592399 20.936 0.819143 20.9913 1.04218 20.9594C1.26521 20.9275 1.46734 20.8108 1.60647 20.6336L3.08413 18.5675L4.5596 20.6336C4.69873 20.8108 4.90086 20.9275 5.1239 20.9594C5.34693 20.9913 5.57367 20.936 5.75691 20.8049C5.94015 20.6738 6.06577 20.4771 6.1076 20.2557C6.14943 20.0343 6.10425 19.8053 5.98147 19.6164L4.15929 17.0625L5.98366 14.5086C6.05045 14.4151 6.09817 14.3093 6.1241 14.1974C6.15002 14.0855 6.15364 13.9695 6.13475 13.8561C6.11586 13.7428 6.07483 13.6343 6.014 13.5368C5.95317 13.4393 5.87373 13.3548 5.78022 13.288ZM16.6018 16.112C16.1643 15.9852 15.7115 15.855 15.4588 15.692C15.3221 15.6023 15.3243 15.5827 15.3363 15.4842C15.338 15.4047 15.3587 15.3267 15.3968 15.2568C15.4348 15.187 15.4891 15.1273 15.5551 15.0828C16.0582 14.7416 17.2329 14.8947 17.7229 15.0216C17.9474 15.0806 18.1862 15.048 18.3867 14.931C18.5872 14.814 18.733 14.6221 18.792 14.3976C18.8511 14.1731 18.8185 13.9343 18.7015 13.7338C18.5844 13.5333 18.3926 13.3875 18.168 13.3284C17.9373 13.2683 15.8712 12.7575 14.5773 13.6303C14.3044 13.8147 14.0753 14.0567 13.9062 14.3392C13.7371 14.6217 13.632 14.9379 13.5983 15.2655C13.3796 17.0023 15.0913 17.4978 16.114 17.7931C17.433 18.1748 17.549 18.3313 17.5118 18.6233C17.4779 18.8869 17.374 18.9875 17.2766 19.0531C16.7735 19.3878 15.6185 19.2227 15.1394 19.0914C14.9154 19.0292 14.6757 19.0585 14.4733 19.173C14.373 19.2297 14.2849 19.3055 14.214 19.3962C14.1431 19.487 14.0907 19.5908 14.0599 19.7017C14.0291 19.8127 14.0204 19.9286 14.0344 20.0429C14.0484 20.1572 14.0848 20.2676 14.1415 20.3679C14.2559 20.5703 14.4461 20.719 14.6702 20.7812C15.2125 20.9241 15.7708 20.9976 16.3316 21C16.9682 21 17.6769 20.8906 18.2446 20.5122C18.5246 20.326 18.7599 20.08 18.9335 19.7919C19.1071 19.5039 19.2148 19.181 19.2487 18.8464C19.4904 16.9531 17.6835 16.4248 16.6018 16.112ZM0.0216294 9.625V1.75C0.0216294 1.28587 0.206004 0.840752 0.534192 0.512563C0.862381 0.184375 1.3075 2.70549e-07 1.77163 2.70549e-07H12.2716C12.3866 -9.01126e-05 12.5004 0.0224663 12.6066 0.0663809C12.7128 0.110295 12.8094 0.174708 12.8907 0.255938L19.0157 6.38094C19.0969 6.46226 19.1613 6.55879 19.2052 6.66501C19.2492 6.77123 19.2717 6.88506 19.2716 7V9.625C19.2716 9.85706 19.1794 10.0796 19.0153 10.2437C18.8513 10.4078 18.6287 10.5 18.3966 10.5C18.1646 10.5 17.942 10.4078 17.7779 10.2437C17.6138 10.0796 17.5216 9.85706 17.5216 9.625V7.875H12.2716C12.0396 7.875 11.817 7.78281 11.6529 7.61872C11.4888 7.45462 11.3966 7.23206 11.3966 7V1.75H1.77163V9.625C1.77163 9.85706 1.67944 10.0796 1.51535 10.2437C1.35125 10.4078 1.12869 10.5 0.896629 10.5C0.664565 10.5 0.442005 10.4078 0.277911 10.2437C0.113817 10.0796 0.0216294 9.85706 0.0216294 9.625ZM13.1466 6.125H16.2835L13.1466 2.98703V6.125Z" fill="white"/>
</svg>

