<svg width="18" height="18" viewBox="0 0 18 18" fill="none" xmlns="http://www.w3.org/2000/svg">
  <path d="M2 15.9994V3H8.37989C9.16418 3 9.82781 3.16191 10.3708 3.48574C10.9137 3.80957 11.321 4.31074 11.5925 4.98924C11.8639 5.65232 11.9997 6.50815 11.9997 7.55674V11.0263H10.1445V7.44109C10.1445 6.59296 10.0088 5.96073 9.73731 5.54437C9.48091 5.1126 9.01335 4.89672 8.33464 4.89672H4.42074V15.9994H2ZM6.27588 15.9994V7.57987H8.13103V13.9177C9.50353 13.8868 10.6121 13.7095 11.4567 13.3857C12.3164 13.0618 12.9725 12.5915 13.425 11.9747C13.8775 11.3579 14.1866 10.61 14.3526 9.73102C14.5185 8.83664 14.5939 7.81118 14.5788 6.65465L14.5562 3H16.9769L16.9995 6.65465C17.0146 8.90603 16.6677 10.7256 15.9588 12.1135C15.265 13.4859 14.1339 14.4805 12.5653 15.0973C10.9967 15.7142 8.90024 16.0149 6.27588 15.9994Z" fill="#4A5565"/>
</svg>
