<svg width="20" height="20" viewBox="0 0 20 20" fill="none" xmlns="http://www.w3.org/2000/svg">
  <path d="M8.05922 3.44663C8.10514 2.96358 8.3295 2.515 8.68847 2.18853C9.04745 1.86206 9.51524 1.68115 10.0005 1.68115C10.4857 1.68115 10.9535 1.86206 11.3125 2.18853C11.6714 2.515 11.8958 2.96358 11.9417 3.44663C11.9693 3.75868 12.0717 4.05948 12.2402 4.32358C12.4086 4.58768 12.6383 4.8073 12.9096 4.96386C13.1809 5.12042 13.486 5.2093 13.799 5.22298C14.1119 5.23666 14.4236 5.17474 14.7076 5.04246C15.1485 4.84228 15.6481 4.81331 16.1092 4.9612C16.5703 5.10909 16.9599 5.42326 17.2022 5.84255C17.4444 6.26185 17.522 6.75627 17.4198 7.22961C17.3176 7.70294 17.0429 8.12131 16.6492 8.4033C16.3929 8.58317 16.1836 8.82214 16.0391 9.09998C15.8947 9.37783 15.8193 9.68639 15.8193 9.99955C15.8193 10.3127 15.8947 10.6213 16.0391 10.8991C16.1836 11.177 16.3929 11.4159 16.6492 11.5958C17.0429 11.8778 17.3176 12.2962 17.4198 12.7695C17.522 13.2428 17.4444 13.7372 17.2022 14.1565C16.9599 14.5758 16.5703 14.89 16.1092 15.0379C15.6481 15.1858 15.1485 15.1568 14.7076 14.9566C14.4236 14.8244 14.1119 14.7624 13.799 14.7761C13.486 14.7898 13.1809 14.8787 12.9096 15.0352C12.6383 15.1918 12.4086 15.4114 12.2402 15.6755C12.0717 15.9396 11.9693 16.2404 11.9417 16.5525C11.8958 17.0355 11.6714 17.4841 11.3125 17.8106C10.9535 18.137 10.4857 18.3179 10.0005 18.3179C9.51524 18.3179 9.04745 18.137 8.68847 17.8106C8.3295 17.4841 8.10514 17.0355 8.05922 16.5525C8.03167 16.2403 7.9293 15.9394 7.76078 15.6752C7.59225 15.411 7.36253 15.1913 7.09108 15.0347C6.81963 14.8782 6.51445 14.7893 6.20137 14.7757C5.8883 14.7621 5.57656 14.8242 5.29256 14.9566C4.85163 15.1568 4.35199 15.1858 3.89089 15.0379C3.42978 14.89 3.0402 14.5758 2.79796 14.1565C2.55572 13.7372 2.47815 13.2428 2.58036 12.7695C2.68256 12.2962 2.95722 11.8778 3.35089 11.5958C3.60724 11.4159 3.8165 11.177 3.96096 10.8991C4.10543 10.6213 4.18085 10.3127 4.18085 9.99955C4.18085 9.68639 4.10543 9.37783 3.96096 9.09998C3.8165 8.82214 3.60724 8.58317 3.35089 8.4033C2.95778 8.12117 2.6836 7.70296 2.58164 7.22995C2.47968 6.75694 2.55723 6.26291 2.79921 5.84389C3.04119 5.42487 3.43032 5.11078 3.89096 4.96266C4.35161 4.81455 4.85088 4.84299 5.29172 5.04246C5.57569 5.17474 5.88734 5.23666 6.20031 5.22298C6.51327 5.2093 6.81833 5.12042 7.08967 4.96386C7.36101 4.8073 7.59063 4.58768 7.75911 4.32358C7.92759 4.05948 8.02996 3.75868 8.05756 3.44663" stroke="#4A5565" stroke-width="1.66667" stroke-linecap="round" stroke-linejoin="round"/>
  <path d="M10 12.5C11.3807 12.5 12.5 11.3807 12.5 10C12.5 8.61929 11.3807 7.5 10 7.5C8.61929 7.5 7.5 8.61929 7.5 10C7.5 11.3807 8.61929 12.5 10 12.5Z" stroke="#4A5565" stroke-width="1.66667" stroke-linecap="round" stroke-linejoin="round"/>
</svg>
